<svg width="599" height="296" viewBox="0 0 599 296" fill="none" xmlns="http://www.w3.org/2000/svg">
<g clip-path="url(#clip0)">
<path fill-rule="evenodd" clip-rule="evenodd" d="M14.7897 0.253326H584.21C592.378 0.253326 599 6.86837 599 15.028V280.972C599 289.132 592.379 295.747 584.21 295.747H14.7897C6.62206 295.747 0 289.132 0 280.972V15.028C0 6.86837 6.62105 0.253326 14.7897 0.253326Z" fill="#3668CE"/>
<path d="M132.266 161.078H164.141L152.422 134.984C151.745 133.318 151.042 131.417 150.312 129.281C149.583 127.094 148.854 124.672 148.125 122.016C147.5 124.516 146.823 126.859 146.094 129.047C145.417 131.182 144.714 133.161 143.984 134.984L132.266 161.078ZM183.672 206L170.703 176.547H125.391L112.109 206H92.5781L147.969 87.0938L203.281 206H183.672ZM229.062 168.734C229.062 176.391 230.964 182.51 234.766 187.094C238.62 191.677 243.672 193.969 249.922 193.969C256.328 193.969 261.276 191.833 264.766 187.562C268.307 183.292 270.078 177.224 270.078 169.359C270.078 161.547 268.229 155.453 264.531 151.078C260.885 146.651 255.859 144.438 249.453 144.438C243.047 144.438 238.047 146.573 234.453 150.844C230.859 155.115 229.062 161.078 229.062 168.734ZM212.656 240.844V131.938H229.609V144.047C231.589 139.359 234.74 135.74 239.062 133.188C243.438 130.635 248.646 129.359 254.688 129.359C264.531 129.359 272.5 133.005 278.594 140.297C284.74 147.536 287.812 157.068 287.812 168.891C287.812 181.339 284.792 191.156 278.75 198.344C272.76 205.479 264.531 209.047 254.062 209.047C248.854 209.047 244.219 208.005 240.156 205.922C236.146 203.839 232.63 200.661 229.609 196.391V240.844H212.656ZM322.188 168.734C322.188 176.391 324.089 182.51 327.891 187.094C331.745 191.677 336.797 193.969 343.047 193.969C349.453 193.969 354.401 191.833 357.891 187.562C361.432 183.292 363.203 177.224 363.203 169.359C363.203 161.547 361.354 155.453 357.656 151.078C354.01 146.651 348.984 144.438 342.578 144.438C336.172 144.438 331.172 146.573 327.578 150.844C323.984 155.115 322.188 161.078 322.188 168.734ZM305.781 240.844V131.938H322.734V144.047C324.714 139.359 327.865 135.74 332.188 133.188C336.562 130.635 341.771 129.359 347.812 129.359C357.656 129.359 365.625 133.005 371.719 140.297C377.865 147.536 380.938 157.068 380.938 168.891C380.938 181.339 377.917 191.156 371.875 198.344C365.885 205.479 357.656 209.047 347.188 209.047C341.979 209.047 337.344 208.005 333.281 205.922C329.271 203.839 325.755 200.661 322.734 196.391V240.844H305.781ZM399.688 206V84.9062H416.641V206H399.688ZM453.672 240.844H436.25L456.562 199.594L429.375 131.938H448.125L461.719 170.297C462.5 172.641 463.177 175.036 463.75 177.484C464.375 179.88 464.87 182.328 465.234 184.828C465.911 182.224 467.526 178.083 470.078 172.406L470.469 171.469L488.75 131.938H507.109L453.672 240.844Z" fill="white"/>
</g>
<defs>
<clipPath id="clip0">
<rect width="599" height="296" fill="white"/>
</clipPath>
</defs>
</svg>
