<svg width="1771" height="1121" viewBox="0 0 1771 1121" fill="none" xmlns="http://www.w3.org/2000/svg">
<path d="M1104.99 826.468L1055.16 925.759L1036.28 859.153L1003.04 926.869L973.811 826.468H988.242L1006.07 891.531L1039.55 823.199L1058.73 889.804L1089.88 826.468H1104.99ZM1184.91 826.468L1173.19 921.688H1159.07L1164.81 875.188H1125.46L1119.79 921.688H1105.66L1117.38 826.468H1131.44L1126.88 863.779H1166.23L1170.79 826.468H1184.91ZM1256.82 826.468L1255.22 839.604H1220.25L1217.23 864.272H1252.2L1250.72 876.483H1215.75L1211.8 908.552H1246.77L1245.1 921.688H1196.07L1207.79 826.468H1256.82ZM1300.92 881.54L1324.84 921.688H1309.92L1287.35 882.527H1282.23L1277.42 921.688H1263.3L1275.01 826.468H1293.7C1299.79 826.468 1304.62 827.023 1308.19 828.133C1311.73 829.161 1314.81 831.052 1317.44 833.807C1322.42 838.905 1324.91 845.483 1324.91 853.541C1324.91 868.301 1316.91 877.634 1300.92 881.54ZM1287.47 839.604L1283.77 870.193H1290.25C1295.02 870.193 1298.57 869.74 1300.92 868.836C1303.42 867.931 1305.52 866.39 1307.21 864.211C1309.51 861.168 1310.66 857.591 1310.66 853.48C1310.66 848.669 1309.26 845.154 1306.47 842.934C1303.71 840.714 1299.35 839.604 1293.39 839.604H1287.47ZM1399.28 826.468L1397.68 839.604H1362.71L1359.69 864.272H1394.66L1393.18 876.483H1358.21L1354.26 908.552H1389.23L1387.56 921.688H1338.54L1350.25 826.468H1399.28Z" fill="#568DFD"/>
<path d="M1456.51 826.468H1475.82C1484.2 826.468 1490.6 827.866 1495 830.661C1498.61 832.923 1501.45 836.109 1503.51 840.22C1505.56 844.455 1506.59 848.916 1506.59 853.603C1506.59 860.428 1504.68 866.431 1500.85 871.611C1495.18 879.299 1486.24 883.144 1474.03 883.144H1463.61L1458.86 921.688H1444.73L1456.51 826.468ZM1468.97 839.604L1465.15 870.624H1474.34C1480.13 870.624 1484.57 869.144 1487.66 866.184C1490.78 863.183 1492.34 858.866 1492.34 853.233C1492.34 844.147 1486.55 839.604 1474.95 839.604H1468.97ZM1611.99 817.464L1619.82 921.688H1606.37L1602.12 861.004L1565.24 928.349L1544.83 861.004L1525.83 921.688H1511.4L1544.33 819.746L1568.45 897.575L1611.99 817.464ZM1699.62 838.617L1690.19 847.621C1685.7 841.043 1680.56 837.754 1674.77 837.754C1670.57 837.754 1667.1 839.049 1664.35 841.639C1661.59 844.229 1660.21 847.477 1660.21 851.383C1660.21 854.508 1661.16 857.201 1663.05 859.462C1664 860.531 1665.37 861.744 1667.18 863.1C1669.03 864.457 1671.33 865.958 1674.09 867.602C1682.27 872.372 1687.74 876.689 1690.49 880.553C1693.29 884.459 1694.69 889.578 1694.69 895.91C1694.69 904.132 1691.97 910.793 1686.55 915.891C1681.2 920.989 1674.15 923.538 1665.39 923.538C1658.32 923.538 1652.34 922.017 1647.45 918.975C1644.98 917.453 1642.68 915.48 1640.54 913.054C1638.4 910.587 1636.35 907.607 1634.37 904.112L1645.1 896.835C1648.02 901.974 1650.88 905.51 1653.68 907.442C1656.47 909.375 1660.11 910.341 1664.59 910.341C1669.57 910.341 1673.45 909.025 1676.25 906.394C1679.08 903.762 1680.5 900.021 1680.5 895.17C1680.5 891.839 1679.48 889.023 1677.42 886.721C1676.39 885.528 1674.85 884.192 1672.79 882.712C1670.78 881.232 1668.21 879.567 1665.09 877.717C1657.93 873.482 1652.94 869.453 1650.1 865.629C1647.39 861.805 1646.03 857.016 1646.03 851.26C1646.03 843.571 1648.7 837.198 1654.05 832.141C1659.39 827.043 1666.13 824.494 1674.27 824.494C1679.58 824.494 1684.1 825.563 1687.84 827.701C1691.67 829.839 1695.59 833.478 1699.62 838.617Z" fill="#3668CE"/>
<path d="M179.05 936.95L139.064 1016.62L123.921 963.178L97.2477 1017.51L73.7909 936.95H85.3709L99.6726 989.158L126.544 934.327L141.934 987.773L166.925 936.95H179.05ZM188.452 995.394L179.149 1013.36H166.826L209.088 931.506L235.465 1013.36H223.638L218.095 995.394H188.452ZM193.351 985.595H214.928L206.713 958.427L193.351 985.595ZM318.752 936.95L308.755 1018.6L262.386 959.417L255.755 1013.36H244.422L254.369 932.793L300.738 991.88L307.468 936.95H318.752ZM357.054 947.49L348.939 1013.36H337.606L345.722 947.49H327.461L328.748 936.95H375.81L374.523 947.49H357.054ZM397.089 936.95L387.687 1013.36H376.354L385.757 936.95H397.089ZM480.376 936.95L470.38 1018.6L424.01 959.417L417.379 1013.36H406.047L415.993 932.793L462.363 991.88L469.093 936.95H480.376ZM530.655 977.826H561.238C560.479 986.503 558.401 993.612 555.002 999.155C548.602 1009.61 539.101 1014.84 526.498 1014.84C515.875 1014.84 507.132 1011.26 500.27 1004.1C493.408 996.944 489.977 987.806 489.977 976.688C489.977 970.65 491.148 964.761 493.49 959.021C495.799 953.412 499.033 948.728 503.19 944.967C510.151 938.599 518.778 935.416 529.071 935.416C541.674 935.416 552.116 940.546 560.397 950.806L553.023 958.328C546.788 950.146 538.738 946.055 528.873 946.055C520.724 946.055 514.11 948.876 509.029 954.518C503.915 960.225 501.359 967.533 501.359 976.44C501.359 984.622 503.75 991.303 508.534 996.483C513.318 1001.66 519.537 1004.25 527.191 1004.25C532.601 1004.25 537.22 1002.77 541.047 999.798C544.841 996.829 547.282 992.771 548.371 987.624H529.418L530.655 977.826ZM631.311 947.49L623.196 1013.36H611.863L619.979 947.49H601.718L603.005 936.95H650.067L648.78 947.49H631.311ZM730.285 973.669C730.285 982.379 727.976 990.28 723.357 997.373C719.695 1002.95 714.911 1007.25 709.006 1010.29C703.101 1013.32 696.568 1014.84 689.409 1014.84C677.961 1014.84 668.625 1011.2 661.399 1003.91C654.174 996.582 650.562 987.113 650.562 975.5C650.562 963.92 654.389 954.353 662.043 946.798C669.73 939.21 679.429 935.416 691.141 935.416C702.853 935.416 712.305 938.929 719.497 945.956C726.689 952.95 730.285 962.188 730.285 973.669ZM718.903 973.57C718.903 965.223 716.429 958.543 711.48 953.528C706.532 948.546 699.884 946.055 691.537 946.055C683.157 946.055 676.114 948.86 670.406 954.468C664.765 960.077 661.944 967.087 661.944 975.5C661.944 983.814 664.567 990.693 669.812 996.136C675.058 1001.55 681.689 1004.25 689.706 1004.25C698.053 1004.25 704.998 1001.33 710.54 995.493C716.116 989.719 718.903 982.412 718.903 973.57ZM820.5 946.699L812.929 953.924C809.333 948.645 805.209 946.006 800.557 946.006C797.192 946.006 794.404 947.045 792.194 949.123C789.983 951.202 788.878 953.808 788.878 956.942C788.878 959.45 789.637 961.611 791.154 963.425C791.913 964.283 793.018 965.256 794.47 966.345C795.955 967.434 797.802 968.638 800.013 969.958C806.578 973.785 810.966 977.249 813.176 980.35C815.42 983.484 816.541 987.591 816.541 992.672C816.541 999.27 814.364 1004.61 810.009 1008.71C805.72 1012.8 800.062 1014.84 793.035 1014.84C787.36 1014.84 782.56 1013.62 778.634 1011.18C776.655 1009.96 774.807 1008.38 773.092 1006.43C771.376 1004.45 769.727 1002.06 768.143 999.254L776.754 993.414C779.096 997.538 781.389 1000.38 783.632 1001.93C785.876 1003.48 788.796 1004.25 792.392 1004.25C796.384 1004.25 799.501 1003.2 801.745 1001.08C804.021 998.973 805.159 995.971 805.159 992.078C805.159 989.406 804.334 987.146 802.685 985.298C801.86 984.342 800.623 983.27 798.973 982.082C797.357 980.894 795.295 979.558 792.787 978.073C787.047 974.675 783.039 971.442 780.762 968.374C778.585 965.306 777.496 961.462 777.496 956.843C777.496 950.674 779.64 945.56 783.929 941.502C788.218 937.412 793.629 935.366 800.161 935.366C804.417 935.366 808.046 936.224 811.048 937.939C814.116 939.655 817.267 942.575 820.5 946.699ZM858.655 947.49L850.539 1013.36H839.206L847.322 947.49H829.061L830.348 936.95H877.41L876.124 947.49H858.655ZM887.901 995.394L878.598 1013.36H866.276L908.538 931.506L934.914 1013.36H923.087L917.544 995.394H887.901ZM892.801 985.595H914.377L906.162 958.427L892.801 985.595ZM974.058 981.142L993.259 1013.36H981.283L963.171 981.933H959.064L955.204 1013.36H943.871L953.274 936.95H968.268C973.151 936.95 977.028 937.395 979.898 938.286C982.735 939.111 985.209 940.628 987.321 942.839C991.313 946.93 993.309 952.208 993.309 958.674C993.309 970.518 986.892 978.007 974.058 981.142ZM963.27 947.49L960.301 972.036H965.497C969.324 972.036 972.178 971.673 974.058 970.947C976.071 970.221 977.753 968.984 979.106 967.236C980.953 964.794 981.877 961.924 981.877 958.625C981.877 954.765 980.756 951.944 978.512 950.163C976.302 948.381 972.805 947.49 968.021 947.49H963.27ZM1032.26 947.49L1024.14 1013.36H1012.81L1020.92 947.49H1002.66L1003.95 936.95H1051.01L1049.72 947.49H1032.26ZM1098.42 995.394L1089.12 1013.36H1076.79L1119.06 931.506L1145.43 1013.36H1133.6L1128.06 995.394H1098.42ZM1103.32 985.595H1124.89L1116.68 958.427L1103.32 985.595ZM1250.15 943.779L1248.61 956.151C1241.98 949.42 1234.08 946.055 1224.91 946.055C1216.83 946.055 1210.29 948.926 1205.31 954.666C1200.3 960.374 1197.79 967.813 1197.79 976.985C1197.79 985.562 1200.2 992.26 1205.01 997.076C1209.8 1001.86 1216.56 1004.25 1225.3 1004.25C1232.59 1004.25 1239.03 1002.01 1244.6 997.522L1242.97 1010.93C1235.94 1013.54 1229.39 1014.84 1223.32 1014.84C1212.24 1014.84 1203.32 1011.33 1196.55 1004.3C1189.79 997.34 1186.41 988.07 1186.41 976.49C1186.41 964.679 1190 954.88 1197.2 947.095C1204.42 939.309 1213.49 935.416 1224.41 935.416C1233.02 935.416 1241.6 938.203 1250.15 943.779ZM1335.81 973.669C1335.81 982.379 1333.5 990.28 1328.88 997.373C1325.22 1002.95 1320.43 1007.25 1314.53 1010.29C1308.62 1013.32 1302.09 1014.84 1294.93 1014.84C1283.48 1014.84 1274.15 1011.2 1266.92 1003.91C1259.7 996.582 1256.08 987.113 1256.08 975.5C1256.08 963.92 1259.91 954.353 1267.57 946.798C1275.25 939.21 1284.95 935.416 1296.66 935.416C1308.38 935.416 1317.83 938.929 1325.02 945.956C1332.21 952.95 1335.81 962.188 1335.81 973.669ZM1324.43 973.57C1324.43 965.223 1321.95 958.543 1317 953.528C1312.05 948.546 1305.41 946.055 1297.06 946.055C1288.68 946.055 1281.64 948.86 1275.93 954.468C1270.29 960.077 1267.47 967.087 1267.47 975.5C1267.47 983.814 1270.09 990.693 1275.34 996.136C1280.58 1001.55 1287.21 1004.25 1295.23 1004.25C1303.58 1004.25 1310.52 1001.33 1316.06 995.493C1321.64 989.719 1324.43 982.412 1324.43 973.57ZM1422.91 929.725L1429.19 1013.36H1418.4L1414.99 964.662L1385.39 1018.7L1369.01 964.662L1353.77 1013.36H1342.19L1368.62 931.556L1387.97 994.008L1422.91 929.725ZM1453.14 936.95H1468.63C1475.36 936.95 1480.49 938.071 1484.02 940.315C1486.93 942.129 1489.2 944.686 1490.85 947.985C1492.5 951.383 1493.33 954.963 1493.33 958.724C1493.33 964.201 1491.79 969.017 1488.72 973.174C1484.17 979.344 1476.99 982.428 1467.2 982.428H1458.83L1455.02 1013.36H1443.69L1453.14 936.95ZM1463.14 947.49L1460.07 972.382H1467.44C1472.1 972.382 1475.66 971.195 1478.13 968.819C1480.64 966.411 1481.89 962.947 1481.89 958.427C1481.89 951.136 1477.24 947.49 1467.94 947.49H1463.14ZM1508.86 995.394L1499.56 1013.36H1487.24L1529.5 931.506L1555.88 1013.36H1544.05L1538.51 995.394H1508.86ZM1513.76 985.595H1535.34L1527.12 958.427L1513.76 985.595ZM1639.16 936.95L1629.17 1018.6L1582.8 959.417L1576.17 1013.36H1564.83L1574.78 932.793L1621.15 991.88L1627.88 936.95H1639.16ZM1678.46 979.162L1674.25 1013.36H1662.92L1667.27 978.37L1647.43 936.95H1659.6L1673.71 967.335L1693.75 936.95H1706.76L1678.46 979.162Z" fill="#568DFD"/>
<path d="M660.97 1030.66L650.394 1116.6H637.648L642.824 1074.63H607.313L602.192 1116.6H589.446L600.021 1030.66H612.712L608.593 1064.33H644.104L648.223 1030.66H660.97ZM688.577 1096.39L678.113 1116.6H664.254L711.788 1024.53L741.455 1116.6H728.152L721.918 1096.39H688.577ZM694.088 1085.37H718.356L709.116 1054.81L694.088 1085.37ZM820.048 1030.66L771.122 1120.49L744.071 1030.66H756.984L774.795 1090.55L806.299 1030.66H820.048ZM875.485 1030.66L874.038 1042.51H842.479L839.751 1064.78H871.311L869.975 1075.8H838.416L834.853 1104.74H866.413L864.91 1116.6H820.66L831.235 1030.66H875.485ZM911.999 1116.6L924.745 1035.11H938.772C949.236 1035.11 956.694 1035.41 961.147 1036C965.637 1036.56 969.274 1037.54 972.057 1038.95C978.105 1041.99 982.706 1046.46 985.86 1052.36C989.052 1058.23 990.647 1065.2 990.647 1073.29C990.647 1081.12 989.219 1087.97 986.361 1093.83C983.541 1099.69 979.237 1104.67 973.448 1108.75C969.366 1111.57 964.524 1113.59 958.921 1114.81C953.318 1116 943.948 1116.6 930.812 1116.6H927.751H911.999ZM936.712 1098.45C938.234 1098.56 939.347 1098.64 940.052 1098.67C940.794 1098.67 941.48 1098.67 942.111 1098.67C950.831 1098.67 957.455 1096.48 961.982 1092.11C966.509 1087.73 968.773 1081.31 968.773 1072.85C968.773 1065.94 967.121 1060.94 963.819 1057.82C960.516 1054.66 955.173 1053.09 947.789 1053.09H943.67L936.712 1098.45ZM998.495 1116.6L1011.41 1035.11H1033.62L1020.7 1116.6H998.495ZM1038.57 1116.6L1051.43 1035.11H1076.31L1093.51 1075.35C1093.66 1075.69 1093.9 1076.26 1094.23 1077.08C1096.12 1081.49 1097.44 1085.35 1098.18 1088.65V1086.59C1098.18 1085.11 1098.26 1083.48 1098.41 1081.7C1098.59 1079.88 1098.85 1077.69 1099.19 1075.13L1105.48 1035.11H1127.24L1114.38 1116.6H1090.45L1072.19 1075.13C1070.85 1072.12 1069.83 1069.64 1069.13 1067.67C1068.46 1065.7 1067.89 1063.74 1067.4 1061.77V1064.05C1067.4 1065.54 1067.33 1067.11 1067.18 1068.78C1067.07 1070.42 1066.85 1072.61 1066.51 1075.35L1060.33 1116.6H1038.57ZM1131.75 1116.6L1144.6 1035.11H1169.48L1186.68 1075.35C1186.83 1075.69 1187.07 1076.26 1187.41 1077.08C1189.3 1081.49 1190.62 1085.35 1191.36 1088.65V1086.59C1191.36 1085.11 1191.43 1083.48 1191.58 1081.7C1191.77 1079.88 1192.03 1077.69 1192.36 1075.13L1198.65 1035.11H1220.41L1207.56 1116.6H1183.62L1165.37 1075.13C1164.03 1072.12 1163.01 1069.64 1162.3 1067.67C1161.64 1065.7 1161.06 1063.74 1160.58 1061.77V1064.05C1160.58 1065.54 1160.5 1067.11 1160.36 1068.78C1160.25 1070.42 1160.02 1072.61 1159.69 1075.35L1153.51 1116.6H1131.75ZM1249.52 1098.45H1274.74L1271.9 1116.6H1224.92L1237.78 1035.11H1284.76L1281.81 1053.92H1256.59L1254.53 1067.22H1277.91L1275.18 1084.92H1251.7L1249.52 1098.45ZM1308.69 1116.6H1287.04L1299.9 1035.11H1321.61C1328.14 1035.11 1333 1035.35 1336.19 1035.83C1339.38 1036.28 1342.14 1037.06 1344.48 1038.17C1348.6 1040.1 1351.72 1042.83 1353.83 1046.35C1355.95 1049.84 1357.01 1054.03 1357.01 1058.93C1357.01 1065.68 1354.98 1071.34 1350.94 1075.91C1346.93 1080.43 1341.4 1083.27 1334.35 1084.42L1354.17 1116.6H1329.34L1313.59 1085.48L1308.69 1116.6ZM1315.65 1072.35H1322.5C1326.8 1072.35 1330.1 1071.36 1332.4 1069.4C1334.7 1067.43 1335.85 1064.59 1335.85 1060.88C1335.85 1057.39 1334.78 1054.87 1332.63 1053.31C1330.47 1051.71 1327.02 1050.92 1322.27 1050.92H1319.04L1315.65 1072.35Z" fill="#3668CE"/>
<path fill-rule="evenodd" clip-rule="evenodd" d="M8.99987 1068.78H538V1071.79H8.99987V1068.78Z" fill="#90B2F8"/>
<path fill-rule="evenodd" clip-rule="evenodd" d="M1391 1068.78H1737V1071.79H1391V1068.78Z" fill="#90B2F8"/>
<path d="M147.84 434.949H39.6V735.469H147.84C240.68 735.469 301.84 674.309 301.84 584.549C301.84 495.669 242.44 434.949 147.84 434.949ZM66.44 709.949V460.469H148.28C225.72 460.469 274.12 511.949 274.12 585.429C274.12 658.909 225.72 709.949 147.84 709.949H66.44ZM389.135 434.949H362.295V735.469H389.135V434.949ZM675.238 434.949V672.549L474.158 433.629H467.998V735.469H494.838V496.989L695.478 736.789H702.078V434.949H675.238ZM988.051 434.949V672.549L786.971 433.629H780.811V735.469H807.651V496.989L1008.29 736.789H1014.89V434.949H988.051ZM1248.94 434.949H1093.62V735.469H1248.94V709.949H1120.46V593.789H1233.1V568.269H1120.46V460.469H1248.94V434.949ZM1435.14 606.549C1470.78 589.829 1490.58 561.669 1490.58 521.629C1490.58 468.389 1451.42 434.949 1385.42 434.949H1310.62V735.469H1337.46V460.469H1385.42C1439.54 460.469 1463.3 485.989 1463.3 522.949C1463.3 560.349 1442.62 582.349 1398.62 597.749L1483.98 735.469H1515.66L1435.14 606.549ZM1552.66 503.149C1552.66 587.189 1683.78 590.269 1683.78 663.309C1683.78 692.349 1659.58 711.709 1618.22 711.709C1592.26 711.709 1575.1 705.989 1548.7 693.669L1543.86 718.749C1564.98 729.749 1589.62 737.229 1617.34 737.229C1677.18 737.229 1710.62 704.669 1710.62 659.349C1710.62 571.789 1580.82 566.069 1580.82 502.269C1580.82 475.869 1601.06 458.709 1638.46 458.709C1653.42 458.709 1674.1 461.789 1699.18 472.349L1704.46 448.149C1680.26 436.269 1654.3 433.189 1637.58 433.189C1583.46 433.189 1552.66 460.909 1552.66 503.149Z" fill="#274689"/>
<path d="M109.2 106.48H47.6V407H74.44V132H109.2C161.12 132 195.44 154.88 195.44 202.4C195.44 246.84 168.16 275.44 108.76 275.44L117.12 300.52C182.24 300.08 222.28 259.16 222.28 202.84C222.28 144.76 184 106.48 109.2 106.48ZM586.15 407L525.43 106.48H518.83L414.99 346.28L311.15 106.48H304.99L244.27 407H271.55L314.67 176.88L411.03 400.4H418.95L513.55 176.88L558.43 407H586.15Z" fill="#274689"/>
</svg>
